#!OML:ASF F:\VICON\USERDATA\INSTALL\Justin_Nancy\Justin_Nancy.ASF
:FULLY-SPECIFIED
:DEGREES
52
root 0.640215 17.7234 -5.09336 7.68048 4.25619 -2.61497
lowerback 7.535 3.83152 7.40765
upperback -3.24311 6.09217 2.46567
thorax -7.1682 2.69937 -2.33326
lowerneck -12.2235 -6.45521 -12.2019
upperneck 11.005 -7.90472 9.77976
head 6.22322 -3.6621 4.36213
rclavicle -5.43676e-014 1.59028e-015
rhumerus -38.9266 19.9824 -90.9196
rradius 139.386
rwrist -11.9963
rhand -16.6498 36.3515
rfingers 7.12502
rthumb 9.57325 6.58895
lclavicle -5.43676e-014 1.59028e-015
lhumerus -72.8491 -5.11311 94.1161
lradius 110.239
lwrist 26.8622
lhand -14.7569 10.2667
lfingers 7.12502
lthumb 11.3992 39.9369
rfemur 19.3886 7.31719 34.1765
rtibia 35.101
rfoot 21.2994 -5.59908
rtoes 11.9295
lfemur -42.345 -3.42953 -19.0202
ltibia 29.6763
lfoot 6.78283 -4.99041
ltoes -11.2565
53
root 0.61508 17.7358 -4.46826 7.4265 4.55417 -2.5351
lowerback 7.63328 4.16243 7.57503
upperback -1.87819 6.42049 1.95069
thorax -5.65399 2.93431 -2.93977
lowerneck -17.5578 -7.50782 -11.7336
upperneck 11.9747 -8.97089 10.2264
head 7.56416 -3.9563 4.18475
rclavicle 2.3059e-014 3.18055e-015
rhumerus -36.6468 19.1291 -90.4158
rradius 138.577
rwrist -12.0413
rhand -16.5781 36.2486
rfingers 7.12502
rthumb 9.64246 6.48926
lclavicle 2.3059e-014 3.18055e-015
lhumerus -69.7163 -6.38122 93.7156
lradius 110.805
lwrist 27.0593
lhand -14.0318 9.92518
lfingers 7.12502
lthumb 12.0984 39.5554
rfemur 18.3975 7.01206 34.3475
rtibia 39.547
rfoot 21.3684 -6.31559
rtoes 12.6624
lfemur -41.4628 -2.43947 -20.0988
ltibia 27.8166
lfoot 6.99324 -4.99531
ltoes -10.4875
54
root 0.58823 17.726 -3.84298 7.01578 4.82747 -2.4531
lowerback 7.61931 4.25191 7.22247
upperback -1.42366 6.46966 1.91101
thorax -5.19013 2.99914 -2.76974
lowerneck -18.0929 -7.69281 -11.6954
upperneck 11.776 -9.21155 10.5332
head 7.63238 -4.02567 4.23579
rclavicle 4.50247e-014 8.74653e-015
rhumerus -37.009 19.2008 -90.643
rradius 137.733
rwrist -11.9228
rhand -17.203 35.2424
rfingers 7.12502
rthumb 9.03944 5.45608
lclavicle 4.50247e-014 8.74653e-015
lhumerus -68.8906 -6.4115 93.8284
lradius 111.552
lwrist 27.133
lhand -13.192 7.78696
lfingers 7.12502
lthumb 12.9081 37.3677
rfemur 17.3894 6.49021 34.4312
rtibia 44.2633
rfoot 21.9489 -6.83314
rtoes 8.62318
lfemur -40.4535 -1.51954 -21.1409
ltibia 26.5511
lfoot 7.15177 -5.42548
ltoes -9.66124
55
root 0.564764 17.711 -3.22335 6.68694 5.12877 -2.2872
lowerback 7.5703 4.24346 6.76875
upperback -1.09798 6.38909 1.90033
thorax -4.87121 2.99248 -2.50566
lowerneck -17.8659 -7.68629 -11.6119
upperneck 11.2089 -9.24598 10.7801
head 7.42263 -4.02758 4.3042
rclavicle 9.34288e-015 1.90833e-014
rhumerus -37.9302 19.4005 -91.1381
rradius 136.624
rwrist -11.659
rhand -18.0647 34.7525
rfingers 7.12502
rthumb 8.20791 4.93193
lclavicle 9.34288e-015 1.90833e-014
lhumerus -68.0256 -6.12699 93.9967
lradius 112.123
lwrist 27.1516
lhand -12.4476 6.5583
lfingers 7.12502
lthumb 13.6256 36.0923
rfemur 15.7491 5.87175 34.2484
rtibia 49.2422
rfoot 22.7997 -8.22292
rtoes 7.89496
lfemur -39.449 -0.951767 -22.0501
ltibia 25.7124
lfoot 7.19446 -6.41361
ltoes -10.5186
56
root 0.535162 17.6735 -2.61524 6.34587 5.45445 -1.75924
lowerback 7.87384 4.14113 6.04335
upperback -0.883331 6.18493 1.66378
thorax -4.88034 2.9122 -2.3515
lowerneck -17.7112 -7.63911 -11.3878
upperneck 10.7286 -9.25383 11.0145
head 7.24426 -4.01026 4.34824
rclavicle 1.06747e-013 4.13472e-014
rhumerus -39.2363 19.7785 -92.3357
rradius 135.562
rwrist -12.7262
rhand -18.0066 32.5026
rfingers 7.12502
rthumb 8.26398 2.68421
lclavicle 1.06747e-013 4.13472e-014
lhumerus -67.115 -5.9488 94.045
lradius 112.608
lwrist 27.1587
lhand -12.6158 5.91049
lfingers 7.12502
lthumb 13.4635 35.4553
rfemur 14.0794 4.94928 33.5326
rtibia 54.2836
rfoot 23.3812 -9.98372
rtoes 10.5782
lfemur -38.3526 -0.590105 -23.1726
ltibia 25.2345
lfoot 7.40865 -7.67646
ltoes -11.3771
